<?xml version="1.0" encoding="utf-8"?>
<!-- Generator: Adobe Illustrator 18.1.1, SVG Export Plug-In . SVG Version: 6.00 Build 0)  -->
<!DOCTYPE svg PUBLIC "-//W3C//DTD SVG 1.1//EN" "http://www.w3.org/Graphics/SVG/1.1/DTD/svg11.dtd">
<svg version="1.1" id="Ebene_1" xmlns="http://www.w3.org/2000/svg" xmlns:xlink="http://www.w3.org/1999/xlink" x="0px" y="0px"
	 width="610.9px" height="111.2px" viewBox="-1112 653.1 610.9 111.2" enable-background="new -1112 653.1 610.9 111.2"
	 xml:space="preserve">
<g id="EQS">
	<g>
		<path fill="#322D28" d="M-821.8,685.9c-3.7,0-30,0-30,0c-3.5,0-6.3-2.9-6.3-6.4s2.8-6.4,6.3-6.4c0,0,49.9,0,55,0c4.8,0,5-20,5-20
			h-64.9c-25.2,0-30.2,11.5-30.2,26.4c0,18.9,4.7,26.4,30.1,26.4c22.3,0,35,0,35,0c3.4,0,6.1,3,6.1,6.4c0,3.4-2.7,6.4-6.1,6.4h-69.1
			v20h74.1c25,0,30-10.2,30-26.4C-786.7,693.5-796.8,685.9-821.8,685.9z"/>
	</g>
	<path fill="#322D28" d="M-896.8,688.7c0-27.1-17.3-35.6-33-35.6h-37.4c-15.8,0-34,9-34.6,35.6v15c0.1,5.9,1.1,10.8,2.6,15h-72.8
		c-8.7,0-10-3.3-10-12.8h66.9v-20h-66.9c0-9.8,2.9-12.8,10-12.8c1.6,0,57,0,57,0c5.1,0,5.1-20,5.1-20h-79.7
		c-12.3,0-22.4,10.6-22.4,35.6v15c0,25.1,10,35,22.4,35h157.7v-21.8c-3.2,1.8-8.3,1.8-14.9,1.8h-5c-15,0-20-3.2-20-14.9v-15
		c0-11.8,5-15.7,20-15.7h5c15,0,20.1,4.9,20.1,15.9v75.3h30L-896.8,688.7z"/>
	<polygon fill="#FF6400" points="-731.4,706 -769.2,706 -788.1,738.8 -750.3,738.8 	"/>
</g>
<g id="Divisionen">
	<g>
		<path fill="#322D28" d="M-686.2,727c0,8.9-2.9,12.1-11.1,12.1h-18.3c-8.9,0-11.7-4-11.7-12.3v-9c0-8.3,2.8-12.3,11.7-12.3h16.7
			c5.9,0,12.2,1.4,12.2,9v1.2h-4.2c0-6.1-1.9-6.6-12.8-6.6h-11.5c-4.3,0-7.7,1.3-7.7,7v12.3c0,5.7,3.4,7,7.7,7h17.3
			c4.4,0,7.2-1.5,7.2-6.1v-3.2h-16.8v-3.6h21.2L-686.2,727L-686.2,727z"/>
		<path fill="#322D28" d="M-678.7,706h26.2c9.5,0,11,3.1,11,9.3v2.7c0,4.6-2.6,5.9-6,6.2v0.1c4.5,0.8,5.6,3.2,5.6,6.2v8.4h-4.2v-7.2
			c0-5.1-2.5-5.7-6.5-5.7h-21.6v12.9h-4.4V706H-678.7z M-653,722.2c4.9,0,7-1.3,7-4.8v-3c0-3.7-1.6-4.8-8.1-4.8h-20.2v12.6H-653z"/>
		<path fill="#322D28" d="M-634.6,717.9c0-8.3,2.8-12.3,11.7-12.3h18.9c8.9,0,11.7,4,11.7,12.3v9c0,8.3-2.8,12.3-11.7,12.3h-18.9
			c-8.9,0-11.7-4-11.7-12.3V717.9z M-596.8,716.2c0-5.7-3.4-7-7.7-7h-18c-4.3,0-7.7,1.3-7.7,7v12.3c0,5.7,3.4,7,7.7,7h18
			c4.3,0,7.7-1.3,7.7-7V716.2z"/>
		<path fill="#322D28" d="M-584.6,706h4.4v24.5c0,3.2,1.1,5,7.1,5h15.4c6,0,7.1-1.9,7.1-5V706h4.4v24.5c0,6.7-3.3,8.6-11.7,8.6H-573
			c-8.3,0-11.7-1.9-11.7-8.6L-584.6,706L-584.6,706z"/>
		<path fill="#322D28" d="M-537.4,706h27c6,0,9.4,1.3,9.4,8.9c0,7.3-0.6,11-10.2,11H-533v12.9h-4.4V706z M-505.5,714.4
			c0-3.9-2.1-4.8-6-4.8H-533v12.6h21.9c3.5,0,5.6-1.3,5.6-4.7V714.4z"/>
	</g>
</g>
</svg>
